# xmcd
#
# Track frame offsets:
#	150
#	13271
#	26844
#	39299
#	50911
#	61328
#	73683
#	82457
#	92853
#	99693
#	108342
#	118932
#	131327
#	142988
#	156910
#	168313
#	178329
#	191116
#	203432
#	211923
#	221552
#	233591
#	244404
#	255437
#
# Disc length: 3550
#
# Revision: 1
# Processed by: cddbd v1.5.1PL0 Copyright (c) Steve Scherf et al.
# Submitted via: CDex 1.50beta9
# Normalized: r0:TDELIM( - )
#
DISCID=670ddc18
DTITLE=Various Artist - Happy Trails and Honky Tonks - The History Of Country Music - CD 1
DYEAR=2001
DGENRE=Country
TTITLE0=Bob Willis and The Texas Playboys - Dusty Skies
TTITLE1=Bob Willis and The Texas Playboys - Cherokee Maiden
TTITLE2=Bob Willis and The Texas Playboys - Bob Wills Special
TTITLE3=Bob Willis and The Texas Playboys - New Spanish Two-Step
TTITLE4=Gene Autry - San Antonio Rose
TTITLE5=Gene Autry - My Old Kentucky Home
TTITLE6=Gene Autry - You Are My Sunshine
TTITLE7=Gene Autry - Down In The Valley
TTITLE8=Buck Owens - You're For Me
TTITLE9=Buck Owens - Why Don't My Mummy Stay With My Daddy And Me
TTITLE10=Buck Owens - After The Dance
TTITLE11=Buck Owens - The House Down The Block
TTITLE12=Patsi Cline - Walkin' After Midnight
TTITLE13=Patsi Cline - A Church, A Courtroom And Then Goodbye
TTITLE14=Patsi Cline - Just Out Of Reach
TTITLE15=Patsi Cline - Turn The Cards Slowly
TTITLE16=Johnny Cash - Folsom Prison Blues
TTITLE17=Johnny Cash - I Walk The Line
TTITLE18=Johnny Cash - The Wreck Of The Old '97
TTITLE19=Johnny Cash - Down The Street To 301
TTITLE20=Ricky Scaggs - Are You Proud Of America?
TTITLE21=Ricky Scaggs - Hulla Girl
TTITLE22=Ricky Scaggs - In Heaven We'll Never Grow Old
TTITLE23=Ricky Scaggs - You're Going Away
EXTD=YEAR: 2001
EXTT0=
EXTT1=
EXTT2=
EXTT3=
EXTT4=
EXTT5=
EXTT6=
EXTT7=
EXTT8=
EXTT9=
EXTT10=
EXTT11=
EXTT12=
EXTT13=
EXTT14=
EXTT15=
EXTT16=
EXTT17=
EXTT18=
EXTT19=
EXTT20=
EXTT21=
EXTT22=
EXTT23=
PLAYORDER=
